<svg id="Capa_1" enable-background="new 0 0 512.001 512.001" height="512" viewBox="0 0 512.001 512.001" width="512" xmlns="http://www.w3.org/2000/svg"><path d="m511.368 149.515c1.562-5.209.182-10.854-3.605-14.756s-9.393-5.449-14.643-4.041c-3.583.959-88.53 24.24-157.05 88.997-10.347 9.779-19.69 19.915-28.112 30.09 2.83-18.112 4.66-36.386 5.344-54.706.201-5.372.304-10.749.304-16.125 0-110.864-43.742-170.487-45.604-172.971-2.833-3.779-7.279-6.003-12.002-6.003s-9.169 2.224-12.002 6.003c-1.862 2.483-45.604 62.106-45.604 172.971 0 24.998 2.214 48.853 5.648 70.831-8.422-10.175-17.765-20.311-28.112-30.09-68.519-64.757-153.467-88.038-157.05-88.997-5.253-1.407-10.854.141-14.643 4.041-3.787 3.901-5.167 9.547-3.605 14.756 1.02 3.401 25.764 84.046 94.438 148.947 11.076 10.468 22.582 19.846 34.104 28.227-58.209 4.346-102.854 32.336-104.879 33.624-4.328 2.753-6.949 7.526-6.949 12.656s2.621 9.903 6.949 12.656c2.195 1.397 54.503 34.19 119.878 34.19 4.006 0 7.962-.125 11.862-.356-12.453 23.218-14.693 45.177-14.814 46.463-.417 4.424 1.148 8.805 4.274 11.963 2.829 2.857 6.672 4.446 10.658 4.446.419 0 .84-.017 1.261-.053 1.889-.159 46.629-4.236 77.657-33.561 2.096-1.981 4.067-4.023 5.929-6.107v54.39c0 8.284 6.716 15 15 15s15-6.716 15-15v-54.389c1.861 2.084 3.833 4.126 5.929 6.107 31.028 29.325 75.769 33.402 77.657 33.561.422.035.842.053 1.261.053 3.986 0 7.83-1.589 10.658-4.446 3.127-3.158 4.691-7.539 4.274-11.963-.121-1.285-2.361-23.244-14.814-46.463 3.899.232 7.856.356 11.862.356 65.375 0 117.683-32.794 119.878-34.19 4.328-2.753 6.949-7.526 6.949-12.656s-2.621-9.903-6.949-12.656c-2.025-1.288-46.67-29.278-104.879-33.624 11.522-8.381 23.027-17.759 34.104-28.227 68.675-64.902 93.419-145.547 94.438-148.948z"/></svg>